<?xml version="1.0" standalone="no"?>
<!DOCTYPE svg PUBLIC "-//W3C//DTD SVG 1.1//EN"
"http://www.w3.org/Graphics/SVG/1.1/DTD/svg11.dtd">

<svg width="471" height="297" view_box="0 0 471 297"
xmlns="http://www.w3.org/2000/svg"
xmlns:link="http://www.w3.org/1999/xlink">\n\n<desc>Généré par Mocodo 2.3.7 le Mon, 23 Mar 2020 07:35:42</desc>

<rect id="frame" x="0" y="0" width="471" height="297" fill="none" stroke="none" stroke-width="0"/>

<!-- Association Contenir -->
<line x1="214" y1="127" x2="319" y2="127" stroke="#726f83" stroke-width="2"/>
<text x="252" y="144.0" fill="#726f83" font-family="Verdana" font-size="12">1,1</text>
<line x1="423" y1="127" x2="319" y2="127" stroke="#726f83" stroke-width="2"/>
<text x="357" y="144.0" fill="#726f83" font-family="Verdana" font-size="12">0,N</text>
<g id="association-Contenir">
	<path d="M 338 102 a 14 14 90 0 1 14 14 V 127 h -66 V 116 a 14 14 90 0 1 14 -14" fill="#b2bba4" stroke="#b2bba4" stroke-width="0"/>
	<path d="M 352 127.0 v 11 a 14 14 90 0 1 -14 14 H 300 a 14 14 90 0 1 -14 -14 V 127.0 H 66" fill="#ccd6ba" stroke="#ccd6ba" stroke-width="0"/>
	<rect x="286" y="102" width="66" height="50" fill="none" rx="14" stroke="#85956b" stroke-width="2"/>
	<line x1="286" y1="127" x2="352" y2="127" stroke="#85956b" stroke-width="1"/>
	<text x="293" y="119.7" fill="#27360c" font-family="Verdana" font-size="12">Contenir</text>
</g>

<!-- Association Avoir bonne réponse -->
<line x1="79" y1="237" x2="79" y2="127" stroke="#726f83" stroke-width="2"/>
<text x="84.0" y="204" fill="#726f83" font-family="Verdana" font-size="12">0,1</text>
<line x1="214" y1="127" x2="79" y2="127" stroke="#726f83" stroke-width="2"/>
<text x="155" y="144.0" fill="#726f83" font-family="Verdana" font-size="12">1,1</text>
<g id="association-Avoir bonne réponse">
	<path d="M 135 102 a 14 14 90 0 1 14 14 V 127 h -140 V 116 a 14 14 90 0 1 14 -14" fill="#b2bba4" stroke="#b2bba4" stroke-width="0"/>
	<path d="M 149 127.0 v 11 a 14 14 90 0 1 -14 14 H 23 a 14 14 90 0 1 -14 -14 V 127.0 H 140" fill="#ccd6ba" stroke="#ccd6ba" stroke-width="0"/>
	<rect x="9" y="102" width="140" height="50" fill="none" rx="14" stroke="#85956b" stroke-width="2"/>
	<line x1="9" y1="127" x2="149" y2="127" stroke="#85956b" stroke-width="1"/>
	<text x="16" y="119.7" fill="#27360c" font-family="Verdana" font-size="12">Avoir bonne réponse</text>
</g>

<!-- Association Classer -->
<line x1="214" y1="127" x2="214" y2="43" stroke="#726f83" stroke-width="2"/>
<text x="219.0" y="85" fill="#726f83" font-family="Verdana" font-size="12">1,1</text>
<line x1="79" y1="43" x2="214" y2="43" stroke="#726f83" stroke-width="2"/>
<text x="105" y="60.0" fill="#726f83" font-family="Verdana" font-size="12">0,N</text>
<g id="association-Classer">
	<path d="M 230 18 a 14 14 90 0 1 14 14 V 43 h -60 V 32 a 14 14 90 0 1 14 -14" fill="#b2bba4" stroke="#b2bba4" stroke-width="0"/>
	<path d="M 244 43.0 v 11 a 14 14 90 0 1 -14 14 H 198 a 14 14 90 0 1 -14 -14 V 43.0 H 60" fill="#ccd6ba" stroke="#ccd6ba" stroke-width="0"/>
	<rect x="184" y="18" width="60" height="50" fill="none" rx="14" stroke="#85956b" stroke-width="2"/>
	<line x1="184" y1="43" x2="244" y2="43" stroke="#85956b" stroke-width="1"/>
	<text x="191" y="35.7" fill="#27360c" font-family="Verdana" font-size="12">Classer</text>
</g>

<!-- Association Posséder -->
<line x1="214" y1="127" x2="214" y2="237" stroke="#726f83" stroke-width="2"/>
<text x="219.0" y="178" fill="#726f83" font-family="Verdana" font-size="12">1,N</text>
<line x1="79" y1="237" x2="214" y2="237" stroke="#726f83" stroke-width="2"/>
<text x="112" y="254.0" fill="#726f83" font-family="Verdana" font-size="12">0,1</text>
<g id="association-Posséder">
	<path d="M 235 212 a 14 14 90 0 1 14 14 V 237 h -70 V 226 a 14 14 90 0 1 14 -14" fill="#b2bba4" stroke="#b2bba4" stroke-width="0"/>
	<path d="M 249 237.0 v 11 a 14 14 90 0 1 -14 14 H 193 a 14 14 90 0 1 -14 -14 V 237.0 H 70" fill="#ccd6ba" stroke="#ccd6ba" stroke-width="0"/>
	<rect x="179" y="212" width="70" height="50" fill="none" rx="14" stroke="#85956b" stroke-width="2"/>
	<line x1="179" y1="237" x2="249" y2="237" stroke="#85956b" stroke-width="1"/>
	<text x="186" y="229.7" fill="#27360c" font-family="Verdana" font-size="12">Posséder</text>
</g>

<!-- Association Écrire -->
<line x1="319" y1="237" x2="423" y2="237" stroke="#726f83" stroke-width="2"/>
<text x="362" y="254.0" fill="#726f83" font-family="Verdana" font-size="12">0,N</text>
<line x1="423" y1="127" x2="423" y2="237" stroke="#726f83" stroke-width="2"/>
<text x="428.0" y="178" fill="#726f83" font-family="Verdana" font-size="12">1,1</text>
<g id="association-Écrire">
	<path d="M 434 212 a 14 14 90 0 1 14 14 V 237 h -50 V 226 a 14 14 90 0 1 14 -14" fill="#b2bba4" stroke="#b2bba4" stroke-width="0"/>
	<path d="M 448 237.0 v 11 a 14 14 90 0 1 -14 14 H 412 a 14 14 90 0 1 -14 -14 V 237.0 H 50" fill="#ccd6ba" stroke="#ccd6ba" stroke-width="0"/>
	<rect x="398" y="212" width="50" height="50" fill="none" rx="14" stroke="#85956b" stroke-width="2"/>
	<line x1="398" y1="237" x2="448" y2="237" stroke="#85956b" stroke-width="1"/>
	<text x="405" y="229.7" fill="#27360c" font-family="Verdana" font-size="12">Écrire</text>
</g>

<!-- Association Définir -->
<line x1="423" y1="127" x2="423" y2="43" stroke="#726f83" stroke-width="2"/>
<text x="428.0" y="85" fill="#726f83" font-family="Verdana" font-size="12">0,N</text>
<line x1="319" y1="43" x2="423" y2="43" stroke="#726f83" stroke-width="2"/>
<text x="344" y="60.0" fill="#726f83" font-family="Verdana" font-size="12">0,N</text>
<g id="association-Définir">
	<path d="M 437 18 a 14 14 90 0 1 14 14 V 43 h -56 V 32 a 14 14 90 0 1 14 -14" fill="#b2bba4" stroke="#b2bba4" stroke-width="0"/>
	<path d="M 451 43.0 v 11 a 14 14 90 0 1 -14 14 H 409 a 14 14 90 0 1 -14 -14 V 43.0 H 56" fill="#ccd6ba" stroke="#ccd6ba" stroke-width="0"/>
	<rect x="395" y="18" width="56" height="50" fill="none" rx="14" stroke="#85956b" stroke-width="2"/>
	<line x1="395" y1="43" x2="451" y2="43" stroke="#85956b" stroke-width="1"/>
	<text x="402" y="35.7" fill="#27360c" font-family="Verdana" font-size="12">Définir</text>
</g>

<!-- Entity Level -->
<g id="entity-Level">
	<g id="frame-Level">
		<rect x="58" y="9" width="42" height="25" fill="#97b8ff" stroke="#97b8ff" stroke-width="0"/>
		<rect x="58" y="34.0" width="42" height="43" fill="#c0d4ff" stroke="#c0d4ff" stroke-width="0"/>
		<rect x="58" y="9" width="42" height="68" fill="none" stroke="#578dff" stroke-width="2"/>
		<line x1="58" y1="34" x2="100" y2="34" stroke="#578dff" stroke-width="1"/>
	</g>
	<text x="63" y="26.7" fill="#131114" font-family="Verdana" font-size="12">Level</text>
	<text x="63" y="51.8" fill="#3e3c42" font-family="Verdana" font-size="12">title</text>
	<line x1="63" y1="54" x2="87" y2="54" stroke="#3e3c42" stroke-width="1"/>
	<text x="63" y="68.8" fill="#3e3c42" font-family="Verdana" font-size="12">color</text>
</g>

<!-- Entity Question -->
<g id="entity-Question">
	<g id="frame-Question">
		<rect x="181" y="93" width="66" height="25" fill="#97b8ff" stroke="#97b8ff" stroke-width="0"/>
		<rect x="181" y="118.0" width="66" height="43" fill="#c0d4ff" stroke="#c0d4ff" stroke-width="0"/>
		<rect x="181" y="93" width="66" height="68" fill="none" stroke="#578dff" stroke-width="2"/>
		<line x1="181" y1="118" x2="247" y2="118" stroke="#578dff" stroke-width="1"/>
	</g>
	<text x="187" y="110.7" fill="#131114" font-family="Verdana" font-size="12">Question</text>
	<text x="186" y="135.8" fill="#3e3c42" font-family="Verdana" font-size="12">question</text>
	<line x1="186" y1="138" x2="238" y2="138" stroke="#3e3c42" stroke-width="1"/>
	<text x="186" y="152.8" fill="#3e3c42" font-family="Verdana" font-size="12">anecdote</text>
</g>

<!-- Entity Quiz -->
<g id="entity-Quiz">
	<g id="frame-Quiz">
		<rect x="384" y="93" width="78" height="25" fill="#97b8ff" stroke="#97b8ff" stroke-width="0"/>
		<rect x="384" y="118.0" width="78" height="43" fill="#c0d4ff" stroke="#c0d4ff" stroke-width="0"/>
		<rect x="384" y="93" width="78" height="68" fill="none" stroke="#578dff" stroke-width="2"/>
		<line x1="384" y1="118" x2="462" y2="118" stroke="#578dff" stroke-width="1"/>
	</g>
	<text x="409" y="110.7" fill="#131114" font-family="Verdana" font-size="12">Quiz</text>
	<text x="389" y="135.8" fill="#3e3c42" font-family="Verdana" font-size="12">title</text>
	<line x1="389" y1="138" x2="413" y2="138" stroke="#3e3c42" stroke-width="1"/>
	<text x="389" y="152.8" fill="#3e3c42" font-family="Verdana" font-size="12">description</text>
</g>

<!-- Entity Tag -->
<g id="entity-Tag">
	<g id="frame-Tag">
		<rect x="299" y="9" width="40" height="25" fill="#97b8ff" stroke="#97b8ff" stroke-width="0"/>
		<rect x="299" y="34.0" width="40" height="43" fill="#c0d4ff" stroke="#c0d4ff" stroke-width="0"/>
		<rect x="299" y="9" width="40" height="68" fill="none" stroke="#578dff" stroke-width="2"/>
		<line x1="299" y1="34" x2="339" y2="34" stroke="#578dff" stroke-width="1"/>
	</g>
	<text x="307" y="26.7" fill="#131114" font-family="Verdana" font-size="12">Tag</text>
	<text x="304" y="51.8" fill="#3e3c42" font-family="Verdana" font-size="12">title</text>
	<line x1="304" y1="54" x2="328" y2="54" stroke="#3e3c42" stroke-width="1"/>
	<text x="304" y="68.8" fill="#3e3c42" font-family="Verdana" font-size="12">color</text>
</g>

<!-- Entity User -->
<g id="entity-User">
	<g id="frame-User">
		<rect x="281" y="186" width="76" height="25" fill="#97b8ff" stroke="#97b8ff" stroke-width="0"/>
		<rect x="281" y="211.0" width="76" height="77" fill="#c0d4ff" stroke="#c0d4ff" stroke-width="0"/>
		<rect x="281" y="186" width="76" height="102" fill="none" stroke="#578dff" stroke-width="2"/>
		<line x1="281" y1="211" x2="357" y2="211" stroke="#578dff" stroke-width="1"/>
	</g>
	<text x="305" y="203.7" fill="#131114" font-family="Verdana" font-size="12">User</text>
	<text x="286" y="228.7" fill="#3e3c42" font-family="Verdana" font-size="12">first_name</text>
	<line x1="286" y1="231" x2="352" y2="231" stroke="#3e3c42" stroke-width="1"/>
	<text x="286" y="245.8" fill="#3e3c42" font-family="Verdana" font-size="12">last_name</text>
	<text x="286" y="262.8" fill="#3e3c42" font-family="Verdana" font-size="12">email</text>
	<text x="286" y="279.8" fill="#3e3c42" font-family="Verdana" font-size="12">password</text>
</g>

<!-- Entity Answer -->
<g id="entity-Answer">
	<g id="frame-Answer">
		<rect x="51" y="212" width="56" height="25" fill="#97b8ff" stroke="#97b8ff" stroke-width="0"/>
		<rect x="51" y="237.0" width="56" height="25" fill="#c0d4ff" stroke="#c0d4ff" stroke-width="0"/>
		<rect x="51" y="212" width="56" height="50" fill="none" stroke="#578dff" stroke-width="2"/>
		<line x1="51" y1="237" x2="107" y2="237" stroke="#578dff" stroke-width="1"/>
	</g>
	<text x="56" y="229.7" fill="#131114" font-family="Verdana" font-size="12">Answer</text>
	<text x="56" y="254.8" fill="#3e3c42" font-family="Verdana" font-size="12">answer</text>
	<line x1="56" y1="257" x2="100" y2="257" stroke="#3e3c42" stroke-width="1"/>
</g>
</svg>